<?xml version="1.0" encoding="UTF-8"?>
<svg id="Ebene_1" xmlns="http://www.w3.org/2000/svg" viewBox="0 0 425.2 124.32">
  <defs>
    <style type="">
      .cls-1 {
        fill: #66dadd;
      }
      .cls-2 {
      fill: white;
      }
    </style>
  </defs>
  <g>
    <polygon class="cls-2" points="177.43 53.01 157.57 53.01 157.57 74.33 148.04 74.33 148.04 24.51 157.57 24.51 157.57 44.95 177.43 44.95 177.43 24.51 186.95 24.51 186.95 74.33 177.43 74.33 177.43 53.01"/>
    <polygon class="cls-2" points="197.43 24.51 231.72 24.51 231.72 32.57 206.96 32.57 206.96 44.81 228.35 44.81 228.35 52.87 206.96 52.87 206.96 66.27 231.72 66.27 231.72 74.33 197.43 74.33 197.43 24.51"/>
    <path class="cls-2" d="M261.84,47.37c2.98,0,4.47-1.66,4.47-4.98v-5.13c0-1.66-.33-2.86-.99-3.59-.66-.73-1.82-1.1-3.48-1.1h-12.02v14.8h12.02Zm-12.02,7.84v19.13h-9.53V24.51h20.3c5.27,0,9.21,1.27,11.8,3.81,2.54,2.49,3.81,6.35,3.81,11.58,0,3.86-.95,7.03-2.86,9.52-1.76,2.35-4.37,4.01-7.84,4.98l11.43,19.93h-10.55l-10.48-19.13h-6.08Z"/>
    <polygon class="cls-2" points="284.77 74.33 284.77 24.51 300.31 24.51 309.98 63.64 310.27 63.64 319.8 24.51 335.41 24.51 335.41 74.33 326.25 74.33 326.25 34.84 325.95 34.84 315.77 74.33 304.41 74.33 294.22 34.84 293.93 34.84 293.93 74.33 284.77 74.33"/>
    <polygon class="cls-2" points="345.88 24.51 380.17 24.51 380.17 32.57 355.41 32.57 355.41 44.81 376.81 44.81 376.81 52.87 355.41 52.87 355.41 66.27 380.17 66.27 380.17 74.33 345.88 74.33 345.88 24.51"/>
    <path class="cls-2" d="M405.09,31.25c-2.64,0-4.71,.52-6.23,1.58-1.51,1.05-2.27,2.48-2.27,4.29,0,1.91,.58,3.36,1.76,4.36,1.17,1,2.96,1.82,5.35,2.45l8.5,2.2c4.25,1.12,7.46,2.82,9.63,5.09,2.17,2.27,3.26,5.46,3.26,9.56,0,2.29-.46,4.35-1.39,6.15-.93,1.81-2.25,3.35-3.96,4.62-1.71,1.27-3.75,2.24-6.12,2.9-2.37,.66-4.97,.99-7.8,.99s-5.36-.29-7.73-.88c-2.37-.59-4.44-1.51-6.23-2.79-1.78-1.27-3.22-2.92-4.32-4.94-1.1-2.03-1.75-4.48-1.94-7.36h9.53c.39,2.93,1.51,5.02,3.37,6.26,1.85,1.25,4.25,1.87,7.18,1.87s5.13-.57,7.03-1.72c1.91-1.15,2.86-2.82,2.86-5.02,0-1.76-.55-3.16-1.65-4.21-1.1-1.05-2.77-1.87-5.02-2.46l-9.74-2.56c-4.1-1.08-7.14-2.83-9.12-5.28-1.98-2.44-2.97-5.5-2.97-9.16,0-2,.43-3.85,1.28-5.53,.85-1.69,2.06-3.14,3.63-4.36,1.56-1.22,3.47-2.17,5.72-2.86,2.25-.69,4.76-1.03,7.55-1.03,2.54,0,4.9,.29,7.07,.88,2.17,.59,4.07,1.49,5.68,2.71,1.61,1.22,2.93,2.79,3.96,4.69,1.03,1.9,1.66,4.15,1.91,6.74h-9.53c-.15-1.37-.5-2.52-1.06-3.45-.56-.93-1.26-1.67-2.09-2.23-.83-.56-1.77-.95-2.82-1.18-1.05-.22-2.14-.33-3.26-.33"/>
  </g>
  <path class="cls-2" d="M148.06,100.78v-14.02h1.44v6.15h7.24v-6.15h1.44v14.02h-1.44v-6.53h-7.24v6.53h-1.44Z"/>
  <path class="cls-2" d="M161.33,97.28v-7.01h1.3v6.78c0,.87,.17,1.55,.49,2.05s.93,.75,1.79,.75c.42,0,.82-.09,1.17-.26,.36-.17,.67-.42,.93-.74,.26-.32,.47-.69,.62-1.13,.15-.43,.23-.91,.23-1.42v-6.04h1.3v10.51h-1.3v-1.83c-.29,.66-.7,1.17-1.23,1.54s-1.18,.55-1.97,.55c-.49,0-.94-.07-1.35-.21s-.76-.36-1.06-.66-.53-.69-.69-1.17c-.16-.48-.24-1.05-.24-1.72Z"/>
  <path class="cls-2" d="M172.29,100.78v-10.51h1.3v1.83c.24-.63,.6-1.14,1.09-1.52,.49-.38,1.11-.57,1.86-.57,.7,0,1.32,.18,1.85,.53,.53,.36,.91,.93,1.15,1.73,.22-.67,.6-1.22,1.13-1.64,.53-.42,1.19-.63,1.99-.63,.46,0,.89,.07,1.28,.2,.39,.14,.73,.36,1.03,.66s.52,.69,.68,1.16c.16,.47,.24,1.05,.24,1.73v7.01h-1.3v-6.82c0-.87-.17-1.54-.5-2.03s-.9-.73-1.68-.73c-.37,0-.72,.09-1.04,.26-.33,.17-.61,.41-.85,.72-.24,.31-.43,.68-.57,1.11-.14,.43-.21,.91-.21,1.41v6.08h-1.3v-6.82c0-.87-.17-1.54-.51-2.03s-.9-.73-1.68-.73c-.37,0-.72,.09-1.04,.26-.33,.17-.61,.41-.85,.72-.24,.31-.43,.68-.57,1.11-.14,.43-.21,.91-.21,1.41v6.08h-1.3Z"/>
  <path class="cls-2" d="M188.27,97.89c0-.83,.22-1.51,.65-2.04,.43-.54,1.11-.85,2.03-.94l3.99-.38v-.97c0-.47-.06-.86-.19-1.16s-.29-.54-.5-.72c-.21-.18-.47-.3-.78-.38-.31-.07-.65-.11-1.02-.11-.74,0-1.34,.17-1.79,.51s-.67,.87-.67,1.59h-1.3c0-.5,.09-.95,.27-1.35,.18-.4,.44-.74,.78-1.03,.34-.29,.74-.51,1.21-.67,.47-.16,.98-.24,1.53-.24s1.07,.07,1.54,.22c.47,.14,.86,.36,1.19,.65,.33,.29,.58,.66,.75,1.11,.18,.45,.26,.99,.26,1.61v6h1.55v1.18h-2.68l-.05-2.04h-.06c-.29,.74-.72,1.31-1.3,1.71-.58,.39-1.25,.59-2.03,.59-.53,0-1.01-.08-1.46-.24s-.81-.39-1.09-.7c-.28-.27-.49-.61-.63-.99-.15-.39-.22-.79-.22-1.21Zm1.44,.36c0,.54,.2,.94,.59,1.21,.39,.26,.92,.39,1.59,.39,.47,0,.89-.09,1.27-.27,.37-.18,.7-.43,.96-.75,.27-.32,.47-.71,.61-1.17,.14-.46,.21-.96,.21-1.5v-.52l-4.38,.4c-.31,.03-.52,.13-.65,.3-.13,.17-.19,.42-.19,.74v1.17Z"/>
  <path class="cls-2" d="M199.44,100.78v-10.51h1.3v1.83c.29-.66,.7-1.17,1.24-1.54,.54-.37,1.21-.55,2.01-.55,.5,0,.96,.07,1.38,.2,.42,.14,.77,.36,1.07,.66s.53,.69,.69,1.16c.16,.47,.24,1.05,.24,1.73v7.01h-1.3v-6.76c0-.87-.17-1.55-.51-2.06-.34-.51-.96-.76-1.85-.76-.44,0-.84,.09-1.2,.27s-.67,.42-.94,.73c-.27,.31-.48,.68-.62,1.12-.15,.44-.22,.91-.22,1.42v6.04h-1.3Z"/>
  <path class="cls-2" d="M210.34,88.39v-1.42h1.38v1.42h-1.38Zm.04,12.39v-10.51h1.3v10.51h-1.3Z"/>
  <path class="cls-2" d="M213.62,91.44v-1.17h1.79v-3.51h1.3v3.51h2.56v1.17h-2.56v8.16h2.56v1.18h-3.86v-9.34h-1.79Z"/>
  <path class="cls-2" d="M221.25,88.39v-1.42h1.38v1.42h-1.38Zm.04,12.39v-10.51h1.3v10.51h-1.3Z"/>
  <path class="cls-2" d="M225.1,95.52c0-.8,.09-1.54,.26-2.21,.18-.68,.45-1.25,.82-1.74,.37-.49,.81-.87,1.35-1.14,.53-.27,1.16-.41,1.88-.41s1.33,.14,1.87,.41c.53,.28,.98,.64,1.34,1.1,.36,.46,.63,.99,.81,1.6s.28,1.25,.28,1.92v.89h-7.18v1.13c0,.42,.08,.81,.25,1.15,.16,.35,.38,.64,.65,.88,.27,.24,.58,.43,.93,.56,.35,.13,.71,.2,1.08,.2,.74,0,1.37-.18,1.9-.55,.52-.37,.83-.95,.93-1.77h1.34c-.07,.56-.22,1.06-.46,1.5-.24,.43-.55,.8-.93,1.1-.38,.3-.81,.52-1.28,.68-.47,.15-.98,.23-1.51,.23-.74,0-1.39-.14-1.94-.41-.55-.27-1-.65-1.35-1.14-.35-.48-.62-1.06-.79-1.73-.17-.67-.26-1.41-.26-2.23Zm1.44-.76h5.74v-.79c0-.42-.07-.81-.23-1.16-.15-.35-.36-.64-.62-.88-.26-.23-.57-.41-.92-.54-.35-.13-.72-.2-1.1-.2s-.75,.07-1.1,.2c-.35,.13-.66,.31-.92,.54-.26,.23-.47,.52-.62,.88-.15,.35-.23,.74-.23,1.16v.79Z"/>
  <path class="cls-2" d="M235.43,97.57h1.3c.03,.76,.31,1.33,.85,1.71s1.17,.57,1.89,.57c.36,0,.69-.04,1.01-.12s.59-.19,.83-.35c.23-.16,.41-.35,.55-.58,.14-.22,.21-.49,.21-.79,0-.52-.16-.92-.47-1.18-.31-.27-.85-.49-1.61-.66l-1.75-.38c-.79-.17-1.41-.47-1.88-.91s-.7-1.08-.7-1.92c0-.42,.09-.81,.26-1.17,.18-.36,.43-.67,.74-.93s.7-.47,1.16-.62c.45-.15,.95-.22,1.48-.22,.47,0,.92,.06,1.35,.18,.44,.13,.83,.32,1.18,.59,.35,.27,.63,.61,.85,1.02,.22,.41,.33,.91,.34,1.49h-1.3c-.03-.74-.28-1.28-.74-1.61-.47-.33-1.03-.49-1.69-.49-.7,0-1.27,.16-1.7,.48-.44,.32-.66,.74-.66,1.26s.14,.9,.42,1.13c.28,.24,.68,.41,1.18,.52l1.76,.37c1.02,.21,1.78,.56,2.29,1.03,.51,.48,.77,1.15,.77,2.01,0,.44-.09,.85-.26,1.22-.18,.37-.43,.69-.77,.95-.34,.27-.75,.48-1.23,.63-.49,.15-1.04,.23-1.64,.23-.56,0-1.08-.08-1.57-.23-.49-.15-.91-.38-1.27-.68-.35-.3-.64-.66-.85-1.09-.21-.43-.32-.92-.33-1.47Z"/>
  <path class="cls-2" d="M250.69,100.78v-14.02h8.78v1.34h-7.34v4.87h6.39v1.34h-6.39v5.13h7.34v1.34h-8.78Z"/>
  <path class="cls-2" d="M261.42,95.52c0-.81,.09-1.56,.26-2.23,.18-.68,.45-1.25,.81-1.74,.36-.49,.8-.86,1.31-1.13,.51-.27,1.12-.4,1.81-.4,1.61,0,2.76,.69,3.44,2.06v-5.32h1.3v14.02h-1.3v-1.81c-.34,.68-.81,1.2-1.41,1.54-.59,.35-1.26,.52-2,.52s-1.31-.14-1.83-.4c-.52-.27-.97-.64-1.33-1.13s-.63-1.06-.81-1.74c-.18-.68-.26-1.42-.26-2.23Zm1.44,1.58c0,.38,.07,.74,.21,1.07,.14,.33,.34,.62,.6,.87,.26,.25,.58,.45,.95,.59,.37,.14,.78,.22,1.23,.22,.49,0,.94-.09,1.33-.26,.39-.17,.73-.41,1.01-.72,.28-.31,.49-.68,.64-1.1s.22-.88,.22-1.38v-1.73c0-.49-.07-.96-.22-1.38s-.36-.79-.64-1.1c-.28-.31-.62-.55-1.01-.72-.39-.17-.84-.26-1.33-.26-.46,0-.87,.07-1.24,.22-.37,.15-.68,.34-.95,.58-.26,.25-.46,.53-.6,.87-.14,.33-.21,.69-.21,1.07v3.17Z"/>
  <path class="cls-2" d="M273.33,97.28v-7.01h1.3v6.78c0,.87,.16,1.55,.49,2.05,.33,.5,.93,.75,1.8,.75,.42,0,.81-.09,1.17-.26,.36-.17,.67-.42,.93-.74,.26-.32,.47-.69,.62-1.13,.15-.43,.23-.91,.23-1.42v-6.04h1.3v10.51h-1.3v-1.83c-.29,.66-.7,1.17-1.23,1.54-.53,.37-1.18,.55-1.97,.55-.49,0-.94-.07-1.35-.21s-.76-.36-1.06-.66c-.3-.3-.53-.69-.69-1.17-.16-.48-.24-1.05-.24-1.72Z"/>
  <path class="cls-2" d="M283.73,95.58c0-.84,.09-1.6,.28-2.29s.45-1.27,.81-1.75,.81-.85,1.35-1.12c.54-.27,1.16-.4,1.86-.4,.53,0,1.02,.07,1.48,.22,.46,.15,.86,.38,1.21,.68s.64,.68,.86,1.12c.22,.45,.35,.96,.39,1.56h-1.3c-.04-.42-.14-.79-.3-1.09s-.36-.56-.61-.76c-.25-.2-.53-.35-.85-.43-.32-.09-.64-.13-.99-.13s-.7,.07-1.03,.2c-.33,.13-.63,.32-.88,.56-.26,.24-.46,.53-.62,.89-.16,.35-.24,.74-.24,1.16v3.05c0,.39,.07,.76,.22,1.11,.14,.35,.35,.64,.6,.89,.25,.25,.55,.45,.89,.59,.33,.14,.7,.22,1.09,.22,.37,0,.72-.05,1.05-.17,.33-.11,.62-.27,.87-.48,.26-.21,.46-.47,.61-.79,.15-.31,.24-.66,.27-1.06h1.3c-.07,.62-.22,1.16-.45,1.62s-.54,.84-.91,1.15-.79,.53-1.25,.68c-.46,.15-.95,.23-1.45,.23-.74,0-1.39-.14-1.92-.41-.53-.27-.98-.65-1.33-1.14-.35-.48-.61-1.06-.78-1.72s-.24-1.39-.24-2.17Z"/>
  <path class="cls-2" d="M293.77,97.89c0-.83,.22-1.51,.65-2.04,.43-.54,1.11-.85,2.03-.94l3.99-.38v-.97c0-.47-.06-.86-.19-1.16s-.29-.54-.5-.72c-.21-.18-.47-.3-.78-.38-.31-.07-.65-.11-1.03-.11-.74,0-1.34,.17-1.79,.51-.45,.34-.67,.87-.67,1.59h-1.3c0-.5,.09-.95,.27-1.35,.18-.4,.44-.74,.78-1.03,.34-.29,.74-.51,1.21-.67,.47-.16,.98-.24,1.53-.24s1.07,.07,1.54,.22c.47,.14,.86,.36,1.19,.65,.33,.29,.58,.66,.76,1.11,.18,.45,.26,.99,.26,1.61v6h1.55v1.18h-2.68l-.05-2.04h-.06c-.29,.74-.72,1.31-1.29,1.71-.58,.39-1.25,.59-2.03,.59-.53,0-1.01-.08-1.46-.24s-.81-.39-1.09-.7c-.28-.27-.49-.61-.63-.99-.14-.39-.22-.79-.22-1.21Zm1.44,.36c0,.54,.2,.94,.59,1.21,.39,.26,.92,.39,1.59,.39,.47,0,.89-.09,1.27-.27,.38-.18,.7-.43,.97-.75,.27-.32,.47-.71,.61-1.17,.14-.46,.21-.96,.21-1.5v-.52l-4.38,.4c-.31,.03-.52,.13-.65,.3-.13,.17-.19,.42-.19,.74v1.17Z"/>
  <path class="cls-2" d="M303.8,91.44v-1.17h1.79v-3.51h1.3v3.51h2.56v1.17h-2.56v8.16h2.56v1.18h-3.86v-9.34h-1.79Z"/>
  <path class="cls-2" d="M311.44,88.39v-1.42h1.38v1.42h-1.38Zm.04,12.39v-10.51h1.3v10.51h-1.3Z"/>
  <path class="cls-2" d="M315.29,95.52c0-.8,.09-1.54,.26-2.21,.18-.68,.45-1.25,.83-1.74,.37-.49,.85-.87,1.41-1.14,.57-.27,1.24-.41,2-.41s1.44,.14,2.01,.41c.57,.28,1.04,.66,1.41,1.14,.37,.49,.65,1.07,.83,1.74,.18,.67,.27,1.41,.27,2.21s-.09,1.53-.27,2.21c-.18,.67-.45,1.25-.83,1.74-.37,.49-.84,.87-1.41,1.15-.57,.28-1.24,.41-2.01,.41s-1.44-.14-2.01-.41c-.57-.27-1.04-.66-1.41-1.15-.37-.49-.65-1.07-.83-1.74-.18-.67-.26-1.41-.26-2.21Zm1.44,1.58c0,.41,.08,.78,.24,1.12s.37,.63,.65,.88c.28,.25,.6,.44,.97,.57,.37,.13,.78,.2,1.21,.2s.85-.07,1.22-.2c.37-.13,.69-.32,.97-.57,.27-.25,.49-.54,.65-.87,.16-.34,.24-.71,.24-1.13v-3.17c0-.41-.08-.78-.24-1.12s-.38-.63-.65-.88c-.27-.24-.6-.43-.97-.56-.37-.13-.78-.2-1.22-.2s-.85,.07-1.22,.2c-.37,.13-.69,.32-.97,.56-.28,.25-.49,.54-.65,.88s-.24,.71-.24,1.12v3.17Z"/>
  <path class="cls-2" d="M326.78,100.78v-10.51h1.3v1.83c.29-.66,.7-1.17,1.24-1.54,.54-.37,1.2-.55,2.01-.55,.5,0,.96,.07,1.38,.2,.41,.14,.77,.36,1.07,.66,.3,.3,.53,.69,.69,1.16,.16,.47,.24,1.05,.24,1.73v7.01h-1.3v-6.76c0-.87-.17-1.55-.51-2.06-.34-.51-.95-.76-1.85-.76-.44,0-.84,.09-1.2,.27s-.67,.42-.94,.73c-.27,.31-.48,.68-.62,1.12s-.22,.91-.22,1.42v6.04h-1.3Z"/>
  <path class="cls-2" d="M342.45,88.39v-1.42h1.38v1.42h-1.38Zm.04,12.39v-10.51h1.3v10.51h-1.3Z"/>
  <path class="cls-2" d="M346.87,100.78v-10.51h1.3v1.83c.29-.66,.7-1.17,1.24-1.54,.54-.37,1.2-.55,2.01-.55,.5,0,.96,.07,1.38,.2,.41,.14,.77,.36,1.07,.66,.3,.3,.53,.69,.69,1.16,.16,.47,.24,1.05,.24,1.73v7.01h-1.3v-6.76c0-.87-.17-1.55-.51-2.06-.34-.51-.95-.76-1.85-.76-.44,0-.84,.09-1.2,.27s-.67,.42-.94,.73c-.27,.31-.48,.68-.62,1.12s-.22,.91-.22,1.42v6.04h-1.3Z"/>
  <path class="cls-2" d="M148.06,122.54v-14.02h5.29c1.46,0,2.48,.34,3.08,1.02,.6,.68,.9,1.64,.9,2.89s-.29,2.2-.89,2.82c-.59,.62-1.39,1-2.41,1.14l3.31,6.14h-1.64l-3.24-6.1h-2.97v6.1h-1.44Zm1.44-7.38h4.33c.58,0,1.05-.16,1.41-.49,.37-.33,.55-.79,.55-1.37v-1.7c0-.58-.18-1.01-.55-1.3-.37-.29-.84-.44-1.41-.44h-4.33v5.3Z"/>
  <path class="cls-2" d="M159.31,117.28c0-.8,.09-1.54,.27-2.21,.18-.68,.45-1.26,.82-1.74,.37-.49,.82-.87,1.35-1.14,.53-.28,1.16-.41,1.88-.41s1.34,.14,1.87,.41c.54,.27,.98,.64,1.34,1.1,.36,.46,.63,.99,.82,1.6,.18,.6,.28,1.25,.28,1.92v.89h-7.18v1.13c0,.42,.08,.81,.25,1.15,.16,.35,.38,.64,.65,.88s.58,.43,.93,.56c.35,.13,.71,.2,1.08,.2,.74,0,1.38-.18,1.9-.55,.52-.37,.83-.95,.93-1.77h1.34c-.07,.56-.22,1.06-.46,1.5-.24,.43-.55,.8-.93,1.1-.38,.3-.81,.52-1.28,.68-.47,.15-.98,.22-1.52,.22-.74,0-1.39-.14-1.94-.41-.55-.28-1-.66-1.35-1.14s-.61-1.06-.79-1.73c-.17-.67-.26-1.41-.26-2.22Zm1.44-.76h5.74v-.79c0-.42-.07-.81-.23-1.16-.15-.35-.36-.64-.62-.88-.26-.23-.57-.41-.92-.54-.35-.13-.72-.2-1.1-.2s-.75,.07-1.1,.2c-.35,.13-.66,.31-.92,.54-.26,.23-.47,.52-.62,.88-.15,.35-.23,.74-.23,1.16v.79Z"/>
  <path class="cls-2" d="M169.63,119.33h1.3c.03,.76,.31,1.33,.85,1.71s1.17,.58,1.89,.58c.36,0,.69-.04,1.01-.12,.32-.08,.59-.2,.83-.35s.42-.35,.55-.57c.14-.22,.21-.49,.21-.79,0-.52-.16-.92-.47-1.19s-.85-.49-1.61-.65l-1.75-.38c-.79-.17-1.41-.47-1.88-.92-.47-.44-.7-1.08-.7-1.92,0-.42,.09-.81,.27-1.17,.18-.36,.43-.67,.74-.93,.32-.26,.7-.47,1.16-.62,.45-.15,.95-.23,1.48-.23,.46,0,.92,.06,1.35,.19s.83,.32,1.18,.59c.35,.27,.63,.61,.85,1.02,.22,.41,.33,.91,.34,1.48h-1.3c-.03-.74-.27-1.28-.74-1.61-.47-.33-1.03-.49-1.69-.49-.7,0-1.27,.16-1.7,.48s-.65,.74-.65,1.26,.14,.89,.42,1.13c.28,.24,.68,.41,1.18,.53l1.76,.37c1.01,.21,1.78,.56,2.29,1.04,.51,.48,.77,1.15,.77,2.01,0,.44-.09,.85-.26,1.22-.18,.37-.43,.69-.77,.96-.34,.27-.75,.48-1.24,.63-.48,.15-1.03,.22-1.64,.22-.56,0-1.08-.07-1.57-.22-.49-.15-.91-.38-1.27-.68s-.64-.66-.85-1.09c-.21-.43-.32-.92-.33-1.48Z"/>
  <path class="cls-2" d="M179.33,117.28c0-.8,.09-1.54,.27-2.21,.18-.68,.45-1.26,.82-1.74,.37-.49,.82-.87,1.35-1.14,.53-.28,1.16-.41,1.88-.41s1.34,.14,1.87,.41c.54,.27,.98,.64,1.34,1.1,.36,.46,.63,.99,.82,1.6,.18,.6,.28,1.25,.28,1.92v.89h-7.18v1.13c0,.42,.08,.81,.25,1.15,.16,.35,.38,.64,.65,.88s.58,.43,.93,.56c.35,.13,.71,.2,1.08,.2,.74,0,1.38-.18,1.9-.55,.52-.37,.83-.95,.93-1.77h1.34c-.07,.56-.22,1.06-.46,1.5-.24,.43-.55,.8-.93,1.1-.38,.3-.81,.52-1.28,.68-.47,.15-.98,.22-1.52,.22-.74,0-1.39-.14-1.94-.41-.55-.28-1-.66-1.35-1.14s-.61-1.06-.79-1.73c-.17-.67-.26-1.41-.26-2.22Zm1.44-.76h5.74v-.79c0-.42-.07-.81-.23-1.16-.15-.35-.36-.64-.62-.88-.26-.23-.57-.41-.92-.54-.35-.13-.72-.2-1.1-.2s-.75,.07-1.1,.2c-.35,.13-.66,.31-.92,.54-.26,.23-.47,.52-.62,.88-.15,.35-.23,.74-.23,1.16v.79Z"/>
  <path class="cls-2" d="M189.67,119.65c0-.82,.22-1.5,.65-2.04,.43-.54,1.11-.85,2.03-.94l3.99-.38v-.97c0-.47-.06-.85-.19-1.16s-.29-.54-.5-.72c-.21-.18-.47-.3-.78-.38-.31-.07-.65-.11-1.02-.11-.74,0-1.34,.17-1.79,.51s-.67,.87-.67,1.59h-1.3c0-.49,.09-.94,.27-1.34s.44-.74,.78-1.03c.34-.29,.74-.51,1.21-.67,.47-.16,.98-.24,1.53-.24s1.07,.07,1.54,.22c.47,.14,.86,.36,1.19,.65,.33,.29,.58,.66,.75,1.11,.18,.45,.26,.99,.26,1.6v6h1.55v1.18h-2.68l-.05-2.04h-.06c-.29,.74-.72,1.31-1.3,1.71-.58,.39-1.25,.59-2.03,.59-.53,0-1.01-.08-1.46-.24s-.81-.39-1.09-.69c-.28-.28-.49-.61-.63-1-.15-.39-.22-.79-.22-1.21Zm1.44,.36c0,.54,.2,.94,.59,1.21,.39,.26,.92,.4,1.59,.4,.47,0,.89-.09,1.27-.27,.37-.18,.7-.43,.96-.75s.47-.71,.61-1.17c.14-.46,.21-.95,.21-1.5v-.52l-4.38,.39c-.31,.03-.52,.13-.65,.3-.13,.17-.19,.42-.19,.74v1.17Z"/>
  <path class="cls-2" d="M200.85,122.54v-10.51h4.64v1.17h-3.34v9.34h-1.3Z"/>
  <path class="cls-2" d="M206.72,117.34c0-.84,.09-1.6,.28-2.29,.18-.69,.46-1.27,.82-1.75,.36-.48,.81-.85,1.35-1.12,.54-.27,1.16-.4,1.86-.4,.53,0,1.03,.08,1.48,.23,.46,.15,.86,.38,1.21,.68s.64,.68,.86,1.12c.22,.45,.35,.96,.39,1.55h-1.3c-.04-.42-.14-.79-.3-1.09-.16-.3-.36-.55-.61-.75s-.53-.35-.85-.43c-.31-.09-.64-.13-.99-.13s-.7,.07-1.03,.2c-.33,.13-.63,.32-.88,.56-.25,.24-.46,.53-.62,.89-.16,.35-.24,.74-.24,1.16v3.05c0,.4,.07,.77,.22,1.11,.14,.35,.34,.64,.6,.89,.25,.25,.55,.44,.89,.59,.34,.14,.7,.22,1.09,.22,.37,0,.72-.05,1.05-.17,.33-.11,.62-.27,.88-.48,.25-.21,.46-.47,.61-.79,.15-.31,.24-.67,.27-1.06h1.3c-.07,.62-.22,1.16-.45,1.62-.24,.46-.54,.84-.91,1.15-.37,.3-.78,.53-1.25,.68-.46,.15-.94,.22-1.45,.22-.74,0-1.38-.14-1.92-.41-.53-.28-.98-.66-1.33-1.14s-.61-1.06-.77-1.72c-.17-.66-.25-1.39-.25-2.17Z"/>
  <path class="cls-2" d="M217.44,122.54v-14.02h1.3v5.35c.29-.66,.7-1.17,1.24-1.54,.54-.37,1.21-.55,2.01-.55,.51,0,.97,.07,1.38,.21s.77,.36,1.07,.66,.53,.69,.69,1.16c.17,.47,.25,1.05,.25,1.73v7.01h-1.3v-6.8c0-.87-.17-1.54-.51-2.04-.34-.49-.95-.74-1.85-.74-.44,0-.85,.09-1.2,.26-.36,.17-.67,.41-.94,.72-.27,.31-.48,.68-.62,1.11-.14,.43-.21,.9-.21,1.41v6.08h-1.3Z"/>
  <path class="cls-2" d="M227.88,122.54v-1.75h1.65v1.75l-.95,1.75h-.7l.89-1.75h-.89Z"/>
  <path class="cls-2" d="M276.38,122.54v-1.75h1.65v1.75l-.95,1.75h-.7l.89-1.75h-.89Z"/>
  <path class="cls-2" d="M235.27,122.54v-14.02h4.33c2.01,0,3.48,.57,4.41,1.7,.93,1.13,1.4,2.9,1.4,5.31s-.47,4.17-1.4,5.3c-.93,1.14-2.41,1.7-4.41,1.7h-4.33Zm1.44-1.34h2.83c1.33,0,2.37-.32,3.11-.95,.74-.64,1.11-1.52,1.11-2.66v-4.12c0-1.14-.37-2.03-1.11-2.66-.74-.64-1.77-.95-3.1-.95h-2.85v11.34Z"/>
  <path class="cls-2" d="M247.34,119.65c0-.82,.22-1.5,.65-2.04,.43-.54,1.11-.85,2.03-.94l3.99-.38v-.97c0-.47-.06-.85-.19-1.16s-.29-.54-.5-.72c-.21-.18-.47-.3-.78-.38-.31-.07-.65-.11-1.03-.11-.74,0-1.34,.17-1.79,.51-.45,.34-.67,.87-.67,1.59h-1.3c0-.49,.09-.94,.27-1.34,.18-.4,.44-.74,.78-1.03,.34-.29,.74-.51,1.21-.67,.47-.16,.98-.24,1.53-.24s1.07,.07,1.54,.22c.47,.14,.86,.36,1.19,.65,.33,.29,.58,.66,.76,1.11,.18,.45,.26,.99,.26,1.6v6h1.55v1.18h-2.68l-.05-2.04h-.06c-.29,.74-.72,1.31-1.29,1.71-.58,.39-1.25,.59-2.03,.59-.53,0-1.01-.08-1.46-.24s-.81-.39-1.09-.69c-.28-.28-.49-.61-.63-1-.14-.39-.22-.79-.22-1.21Zm1.44,.36c0,.54,.2,.94,.59,1.21,.39,.26,.92,.4,1.59,.4,.47,0,.89-.09,1.27-.27,.38-.18,.7-.43,.97-.75,.27-.32,.47-.71,.61-1.17s.21-.95,.21-1.5v-.52l-4.38,.39c-.31,.03-.52,.13-.65,.3-.13,.17-.19,.42-.19,.74v1.17Z"/>
  <path class="cls-2" d="M257.37,113.2v-1.17h1.79v-3.51h1.3v3.51h2.56v1.17h-2.56v8.16h2.56v1.18h-3.86v-9.34h-1.79Z"/>
  <path class="cls-2" d="M264.37,119.65c0-.82,.22-1.5,.65-2.04,.43-.54,1.11-.85,2.03-.94l3.99-.38v-.97c0-.47-.06-.85-.19-1.16s-.29-.54-.5-.72c-.21-.18-.47-.3-.78-.38-.31-.07-.65-.11-1.03-.11-.74,0-1.34,.17-1.79,.51-.45,.34-.67,.87-.67,1.59h-1.3c0-.49,.09-.94,.27-1.34,.18-.4,.44-.74,.78-1.03,.34-.29,.74-.51,1.21-.67,.47-.16,.98-.24,1.53-.24s1.07,.07,1.54,.22c.47,.14,.86,.36,1.19,.65,.33,.29,.58,.66,.76,1.11,.18,.45,.26,.99,.26,1.6v6h1.55v1.18h-2.68l-.05-2.04h-.06c-.29,.74-.72,1.31-1.29,1.71-.58,.39-1.25,.59-2.03,.59-.53,0-1.01-.08-1.46-.24s-.81-.39-1.09-.69c-.28-.28-.49-.61-.63-1-.14-.39-.22-.79-.22-1.21Zm1.44,.36c0,.54,.2,.94,.59,1.21,.39,.26,.92,.4,1.59,.4,.47,0,.89-.09,1.27-.27,.38-.18,.7-.43,.97-.75,.27-.32,.47-.71,.61-1.17s.21-.95,.21-1.5v-.52l-4.38,.39c-.31,.03-.52,.13-.65,.3-.13,.17-.19,.42-.19,.74v1.17Z"/>
  <path class="cls-2" d="M283.07,119.65c0-.82,.22-1.5,.65-2.04,.43-.54,1.11-.85,2.03-.94l3.99-.38v-.97c0-.47-.06-.85-.19-1.16s-.29-.54-.5-.72c-.21-.18-.47-.3-.78-.38-.31-.07-.65-.11-1.03-.11-.74,0-1.34,.17-1.79,.51-.45,.34-.67,.87-.67,1.59h-1.3c0-.49,.09-.94,.27-1.34,.18-.4,.44-.74,.78-1.03,.34-.29,.74-.51,1.21-.67,.47-.16,.98-.24,1.53-.24s1.07,.07,1.54,.22c.47,.14,.86,.36,1.19,.65,.33,.29,.58,.66,.76,1.11,.18,.45,.26,.99,.26,1.6v6h1.55v1.18h-2.68l-.05-2.04h-.06c-.29,.74-.72,1.31-1.29,1.71-.58,.39-1.25,.59-2.03,.59-.53,0-1.01-.08-1.46-.24s-.81-.39-1.09-.69c-.28-.28-.49-.61-.63-1-.14-.39-.22-.79-.22-1.21Zm1.44,.36c0,.54,.2,.94,.59,1.21,.39,.26,.92,.4,1.59,.4,.47,0,.89-.09,1.27-.27,.38-.18,.7-.43,.97-.75,.27-.32,.47-.71,.61-1.17s.21-.95,.21-1.5v-.52l-4.38,.39c-.31,.03-.52,.13-.65,.3-.13,.17-.19,.42-.19,.74v1.17Z"/>
  <path class="cls-2" d="M294.25,122.54v-10.51h1.3v1.83c.29-.66,.7-1.17,1.24-1.54s1.2-.55,2.01-.55c.5,0,.96,.07,1.38,.21s.77,.36,1.07,.66c.3,.3,.53,.69,.69,1.16,.16,.47,.24,1.05,.24,1.73v7.01h-1.3v-6.76c0-.87-.17-1.55-.51-2.06s-.95-.76-1.85-.76c-.44,0-.84,.09-1.2,.27-.36,.18-.67,.42-.94,.73-.27,.31-.48,.68-.62,1.12-.14,.44-.22,.91-.22,1.42v6.04h-1.3Z"/>
  <path class="cls-2" d="M304.61,117.28c0-.81,.09-1.56,.26-2.23,.18-.68,.45-1.26,.81-1.74s.8-.86,1.31-1.13c.51-.27,1.12-.4,1.81-.4,1.61,0,2.76,.69,3.44,2.06v-5.33h1.3v14.02h-1.3v-1.81c-.34,.68-.81,1.2-1.41,1.54-.59,.35-1.26,.52-2,.52s-1.31-.13-1.83-.4c-.52-.27-.97-.64-1.33-1.13s-.63-1.06-.81-1.74c-.18-.68-.26-1.42-.26-2.23Zm1.44,1.58c0,.38,.07,.74,.21,1.07,.14,.33,.34,.62,.6,.87,.26,.25,.58,.44,.95,.59,.37,.14,.78,.22,1.23,.22,.49,0,.94-.09,1.33-.26,.39-.17,.73-.41,1.01-.72,.28-.31,.49-.68,.64-1.1s.22-.88,.22-1.38v-1.73c0-.5-.07-.96-.22-1.38-.14-.43-.36-.79-.64-1.1-.28-.31-.62-.55-1.01-.72-.39-.17-.84-.26-1.33-.26-.46,0-.87,.07-1.24,.22s-.68,.34-.95,.58-.46,.53-.6,.87c-.14,.33-.21,.69-.21,1.07v3.17Z"/>
  <path class="cls-2" d="M321.62,122.54v-14.02h2.26l4.23,11.7h.08l4.21-11.7h2.23v14.02h-1.38v-12.12h-.08l-4.44,12.12h-1.19l-4.46-12.12h-.08v12.12h-1.38Z"/>
  <path class="cls-2" d="M337.29,117.28c0-.8,.09-1.54,.26-2.21,.18-.68,.45-1.26,.82-1.74s.81-.87,1.35-1.14c.53-.28,1.16-.41,1.88-.41s1.33,.14,1.87,.41c.53,.27,.98,.64,1.34,1.1s.63,.99,.81,1.6,.28,1.25,.28,1.92v.89h-7.18v1.13c0,.42,.08,.81,.25,1.15s.38,.64,.65,.88c.27,.24,.58,.43,.93,.56,.35,.13,.71,.2,1.08,.2,.74,0,1.37-.18,1.9-.55s.83-.95,.93-1.77h1.34c-.07,.56-.22,1.06-.46,1.5-.24,.43-.55,.8-.93,1.1s-.81,.52-1.28,.68c-.47,.15-.98,.22-1.51,.22-.74,0-1.39-.14-1.94-.41-.55-.28-1-.66-1.35-1.14-.35-.48-.62-1.06-.79-1.73-.17-.67-.26-1.41-.26-2.22Zm1.44-.76h5.74v-.79c0-.42-.07-.81-.23-1.16-.15-.35-.36-.64-.62-.88-.26-.23-.57-.41-.92-.54-.35-.13-.72-.2-1.1-.2s-.75,.07-1.1,.2c-.35,.13-.66,.31-.92,.54-.26,.23-.47,.52-.62,.88-.15,.35-.23,.74-.23,1.16v.79Z"/>
  <path class="cls-2" d="M347.16,113.2v-1.17h1.79v-3.51h1.3v3.51h2.56v1.17h-2.56v8.16h2.56v1.18h-3.86v-9.34h-1.79Z"/>
  <path class="cls-2" d="M354.83,122.54v-14.02h1.3v5.35c.29-.66,.7-1.17,1.24-1.54s1.2-.55,2.01-.55c.5,0,.96,.07,1.38,.21s.77,.36,1.07,.66c.3,.3,.53,.69,.69,1.16,.16,.47,.24,1.05,.24,1.73v7.01h-1.3v-6.8c0-.87-.17-1.54-.51-2.04-.34-.49-.95-.74-1.85-.74-.44,0-.84,.09-1.2,.26-.36,.17-.67,.41-.94,.72-.27,.31-.48,.68-.62,1.11-.14,.43-.22,.9-.22,1.41v6.08h-1.3Z"/>
  <path class="cls-2" d="M365.2,117.28c0-.8,.09-1.54,.26-2.21,.18-.68,.45-1.26,.83-1.74,.37-.49,.85-.87,1.41-1.14,.57-.28,1.24-.41,2-.41s1.44,.14,2.01,.41c.57,.27,1.04,.66,1.41,1.14,.37,.49,.65,1.07,.83,1.74,.18,.67,.27,1.41,.27,2.21s-.09,1.53-.27,2.2c-.18,.67-.45,1.25-.83,1.74-.37,.49-.84,.87-1.41,1.15-.57,.27-1.24,.41-2.01,.41s-1.44-.14-2.01-.41c-.57-.28-1.04-.66-1.41-1.15-.37-.49-.65-1.07-.83-1.74-.18-.67-.26-1.41-.26-2.2Zm1.44,1.58c0,.41,.08,.79,.24,1.12,.16,.34,.37,.63,.65,.88,.28,.25,.6,.44,.97,.57,.37,.13,.78,.2,1.21,.2s.85-.07,1.22-.2c.37-.13,.69-.32,.97-.57,.27-.25,.49-.54,.65-.88,.16-.33,.24-.71,.24-1.13v-3.17c0-.41-.08-.79-.24-1.12-.16-.34-.38-.63-.65-.88-.27-.24-.6-.43-.97-.56-.37-.13-.78-.2-1.22-.2s-.85,.07-1.22,.2c-.37,.13-.69,.32-.97,.56s-.49,.54-.65,.88c-.16,.34-.24,.71-.24,1.12v3.17Z"/>
  <path class="cls-2" d="M376.11,117.28c0-.81,.09-1.56,.26-2.23,.18-.68,.45-1.26,.81-1.74s.8-.86,1.31-1.13c.51-.27,1.12-.4,1.81-.4,1.61,0,2.76,.69,3.44,2.06v-5.33h1.3v14.02h-1.3v-1.81c-.34,.68-.81,1.2-1.41,1.54-.59,.35-1.26,.52-2,.52s-1.31-.13-1.83-.4c-.52-.27-.97-.64-1.33-1.13s-.63-1.06-.81-1.74c-.18-.68-.26-1.42-.26-2.23Zm1.44,1.58c0,.38,.07,.74,.21,1.07,.14,.33,.34,.62,.6,.87,.26,.25,.58,.44,.95,.59,.37,.14,.78,.22,1.23,.22,.49,0,.94-.09,1.33-.26,.39-.17,.73-.41,1.01-.72,.28-.31,.49-.68,.64-1.1s.22-.88,.22-1.38v-1.73c0-.5-.07-.96-.22-1.38-.14-.43-.36-.79-.64-1.1-.28-.31-.62-.55-1.01-.72-.39-.17-.84-.26-1.33-.26-.46,0-.87,.07-1.24,.22s-.68,.34-.95,.58-.46,.53-.6,.87c-.14,.33-.21,.69-.21,1.07v3.17Z"/>
  <path class="cls-2" d="M387.43,119.33h1.3c.03,.76,.31,1.33,.85,1.71s1.17,.58,1.89,.58c.36,0,.69-.04,1.01-.12,.32-.08,.59-.2,.83-.35,.23-.16,.41-.35,.55-.57s.21-.49,.21-.79c0-.52-.16-.92-.47-1.19-.31-.27-.85-.49-1.61-.65l-1.75-.38c-.79-.17-1.41-.47-1.88-.92s-.7-1.08-.7-1.92c0-.42,.09-.81,.26-1.17s.43-.67,.74-.93,.7-.47,1.16-.62c.45-.15,.95-.23,1.48-.23,.47,0,.92,.06,1.35,.19s.83,.32,1.18,.59c.35,.27,.63,.61,.85,1.02,.22,.41,.33,.91,.34,1.48h-1.3c-.03-.74-.28-1.28-.74-1.61-.47-.33-1.03-.49-1.69-.49-.7,0-1.27,.16-1.7,.48-.44,.32-.66,.74-.66,1.26s.14,.89,.42,1.13c.28,.24,.68,.41,1.18,.53l1.76,.37c1.02,.21,1.78,.56,2.29,1.04,.51,.48,.77,1.15,.77,2.01,0,.44-.09,.85-.26,1.22-.18,.37-.43,.69-.77,.96-.34,.27-.75,.48-1.23,.63-.49,.15-1.04,.22-1.64,.22-.56,0-1.08-.07-1.57-.22-.49-.15-.91-.38-1.27-.68-.35-.3-.64-.66-.85-1.09-.21-.43-.32-.92-.33-1.48Z"/>
  <path class="cls-1" d="M122.65,98.04v24.51h-24.51v-19.03c0-3.02-2.45-5.47-5.47-5.47h-19.04v-19.05c0-3.02-2.45-5.47-5.47-5.47h-13.57c-3.02,0-5.47,2.45-5.47,5.47v19.04H30.08c-3.02,.01-5.47,2.46-5.47,5.48v19.03S.1,122.55,.1,122.55v-24.51H19.13c3.02,0,5.47-2.45,5.47-5.47V29.98c0-3.02-2.45-5.47-5.47-5.47H.1S.1,0,.1,0H24.61V19.03c0,3.02,2.45,5.48,5.47,5.48h19.04v19.04c0,3.02,2.45,5.47,5.47,5.47h13.57c3.02,0,5.47-2.45,5.47-5.47V24.51h19.06c3.02,0,5.45-2.58,5.45-5.6V0S122.65,0,122.65,0V24.51h-19.04c-3.02,0-5.47,2.45-5.47,5.47v62.59c0,3.02,2.45,5.47,5.47,5.47h19.04Z"/>
</svg>